<?xml version="1.0" encoding="utf-8" standalone="no"?>
<!DOCTYPE svg PUBLIC "-//W3C//DTD SVG 1.1//EN"
  "http://www.w3.org/Graphics/SVG/1.1/DTD/svg11.dtd">
<svg xmlns:xlink="http://www.w3.org/1999/xlink" width="1152pt" height="432pt" viewBox="0 0 1152 432" xmlns="http://www.w3.org/2000/svg" version="1.1">
 <metadata>
  <rdf:RDF xmlns:dc="http://purl.org/dc/elements/1.1/" xmlns:cc="http://creativecommons.org/ns#" xmlns:rdf="http://www.w3.org/1999/02/22-rdf-syntax-ns#">
   <cc:Work>
    <dc:type rdf:resource="http://purl.org/dc/dcmitype/StillImage"/>
    <dc:date>2023-11-23T11:19:46.750245</dc:date>
    <dc:format>image/svg+xml</dc:format>
    <dc:creator>
     <cc:Agent>
      <dc:title>Matplotlib v3.8.2, https://matplotlib.org/</dc:title>
     </cc:Agent>
    </dc:creator>
   </cc:Work>
  </rdf:RDF>
 </metadata>
 <defs>
  <style type="text/css">*{stroke-linejoin: round; stroke-linecap: butt}</style>
 </defs>
 <g id="figure_1">
  <g id="patch_1">
   <path d="M 0 432
L 1152 432
L 1152 0
L 0 0
L 0 432
z
" style="fill: none"/>
  </g>
  <g id="axes_1">
   <g id="patch_2">
    <path d="M 144 384.48
L 549.818182 384.48
L 549.818182 51.84
L 144 51.84
L 144 384.48
z
" style="fill: none"/>
   </g>
   <g id="matplotlib.axis_1">
    <g id="xtick_1">
     <g id="line2d_1">
      <defs>
       <path id="m9d0a1ae2a1" d="M 0 0
L 0 3.5
" style="stroke: #000000; stroke-width: 0.8"/>
      </defs>
      <g>
       <use xlink:href="#m9d0a1ae2a1" x="162.446281" y="384.48" style="stroke: #000000; stroke-width: 0.8"/>
      </g>
     </g>
     <g id="line2d_2">
      <defs>
       <path id="md5f58dab74" d="M 0 0
L 0 -3.5
" style="stroke: #000000; stroke-width: 0.8"/>
      </defs>
      <g>
       <use xlink:href="#md5f58dab74" x="162.446281" y="51.84" style="stroke: #000000; stroke-width: 0.8"/>
      </g>
     </g>
     <g id="text_1">
      <!-- $\mathdefault{0}$ -->
      <g transform="translate(158.789629 401.85359) scale(0.14994 -0.14994)">
       <defs>
        <path id="CMR17-30" d="M 2688 2038
C 2688 2430 2682 3099 2413 3613
C 2176 4063 1798 4224 1466 4224
C 1158 4224 768 4082 525 3620
C 269 3137 243 2539 243 2038
C 243 1671 250 1112 448 623
C 723 -39 1216 -128 1466 -128
C 1760 -128 2208 -7 2470 604
C 2662 1048 2688 1568 2688 2038
z
M 1466 -26
C 1056 -26 813 328 723 816
C 653 1196 653 1749 653 2109
C 653 2604 653 3015 736 3407
C 858 3954 1216 4121 1466 4121
C 1728 4121 2067 3947 2189 3420
C 2272 3054 2278 2623 2278 2109
C 2278 1691 2278 1176 2202 797
C 2067 96 1690 -26 1466 -26
z
" transform="scale(0.015625)"/>
       </defs>
       <use xlink:href="#CMR17-30" transform="scale(0.996264)"/>
      </g>
     </g>
    </g>
    <g id="xtick_2">
     <g id="line2d_3">
      <g>
       <use xlink:href="#m9d0a1ae2a1" x="221.162617" y="384.48" style="stroke: #000000; stroke-width: 0.8"/>
      </g>
     </g>
     <g id="line2d_4">
      <g>
       <use xlink:href="#md5f58dab74" x="221.162617" y="51.84" style="stroke: #000000; stroke-width: 0.8"/>
      </g>
     </g>
     <g id="text_2">
      <!-- $\mathdefault{1}$ -->
      <g transform="translate(217.505965 401.85359) scale(0.14994 -0.14994)">
       <defs>
        <path id="CMR17-31" d="M 1702 4083
C 1702 4217 1696 4224 1606 4224
C 1357 3927 979 3833 621 3820
C 602 3820 570 3820 563 3808
C 557 3795 557 3782 557 3648
C 755 3648 1088 3686 1344 3839
L 1344 467
C 1344 243 1331 166 781 166
L 589 166
L 589 0
C 896 6 1216 12 1523 12
C 1830 12 2150 6 2458 0
L 2458 166
L 2266 166
C 1715 166 1702 236 1702 467
L 1702 4083
z
" transform="scale(0.015625)"/>
       </defs>
       <use xlink:href="#CMR17-31" transform="scale(0.996264)"/>
      </g>
     </g>
    </g>
    <g id="xtick_3">
     <g id="line2d_5">
      <g>
       <use xlink:href="#m9d0a1ae2a1" x="279.878953" y="384.48" style="stroke: #000000; stroke-width: 0.8"/>
      </g>
     </g>
     <g id="line2d_6">
      <g>
       <use xlink:href="#md5f58dab74" x="279.878953" y="51.84" style="stroke: #000000; stroke-width: 0.8"/>
      </g>
     </g>
     <g id="text_3">
      <!-- $\mathdefault{2}$ -->
      <g transform="translate(276.222301 401.85359) scale(0.14994 -0.14994)">
       <defs>
        <path id="CMR17-32" d="M 2669 990
L 2554 990
C 2490 537 2438 460 2413 422
C 2381 371 1920 371 1830 371
L 602 371
C 832 620 1280 1073 1824 1596
C 2214 1966 2669 2400 2669 3033
C 2669 3788 2067 4224 1395 4224
C 691 4224 262 3603 262 3027
C 262 2777 448 2745 525 2745
C 589 2745 781 2783 781 3007
C 781 3206 614 3264 525 3264
C 486 3264 448 3257 422 3244
C 544 3788 915 4057 1306 4057
C 1862 4057 2227 3616 2227 3033
C 2227 2477 1901 1998 1536 1583
L 262 147
L 262 0
L 2515 0
L 2669 990
z
" transform="scale(0.015625)"/>
       </defs>
       <use xlink:href="#CMR17-32" transform="scale(0.996264)"/>
      </g>
     </g>
    </g>
    <g id="xtick_4">
     <g id="line2d_7">
      <g>
       <use xlink:href="#m9d0a1ae2a1" x="338.595289" y="384.48" style="stroke: #000000; stroke-width: 0.8"/>
      </g>
     </g>
     <g id="line2d_8">
      <g>
       <use xlink:href="#md5f58dab74" x="338.595289" y="51.84" style="stroke: #000000; stroke-width: 0.8"/>
      </g>
     </g>
     <g id="text_4">
      <!-- $\mathdefault{3}$ -->
      <g transform="translate(334.938637 401.85359) scale(0.14994 -0.14994)">
       <defs>
        <path id="CMR17-33" d="M 1414 2176
C 1984 2176 2234 1673 2234 1094
C 2234 322 1824 25 1453 25
C 1114 25 563 193 390 691
C 422 678 454 678 486 678
C 640 678 755 780 755 947
C 755 1132 614 1216 486 1216
C 378 1216 211 1164 211 927
C 211 335 787 -128 1466 -128
C 2176 -128 2720 432 2720 1087
C 2720 1718 2208 2176 1600 2246
C 2086 2347 2554 2776 2554 3353
C 2554 3856 2048 4224 1472 4224
C 890 4224 378 3862 378 3347
C 378 3123 544 3084 627 3084
C 762 3084 877 3167 877 3334
C 877 3500 762 3584 627 3584
C 602 3584 570 3584 544 3571
C 730 3999 1235 4076 1459 4076
C 1683 4076 2106 3966 2106 3347
C 2106 3167 2080 2851 1862 2574
C 1670 2329 1453 2316 1242 2297
C 1210 2297 1062 2284 1037 2284
C 992 2278 966 2272 966 2227
C 966 2182 973 2176 1101 2176
L 1414 2176
z
" transform="scale(0.015625)"/>
       </defs>
       <use xlink:href="#CMR17-33" transform="scale(0.996264)"/>
      </g>
     </g>
    </g>
    <g id="xtick_5">
     <g id="line2d_9">
      <g>
       <use xlink:href="#m9d0a1ae2a1" x="397.311625" y="384.48" style="stroke: #000000; stroke-width: 0.8"/>
      </g>
     </g>
     <g id="line2d_10">
      <g>
       <use xlink:href="#md5f58dab74" x="397.311625" y="51.84" style="stroke: #000000; stroke-width: 0.8"/>
      </g>
     </g>
     <g id="text_5">
      <!-- $\mathdefault{4}$ -->
      <g transform="translate(393.654973 401.85359) scale(0.14994 -0.14994)">
       <defs>
        <path id="CMR17-34" d="M 2150 4147
C 2150 4281 2144 4288 2029 4288
L 128 1254
L 128 1088
L 1779 1088
L 1779 460
C 1779 230 1766 166 1318 166
L 1197 166
L 1197 0
C 1402 12 1747 12 1965 12
C 2182 12 2528 12 2733 0
L 2733 166
L 2611 166
C 2163 166 2150 230 2150 460
L 2150 1088
L 2803 1088
L 2803 1254
L 2150 1254
L 2150 4147
z
M 1798 3723
L 1798 1254
L 256 1254
L 1798 3723
z
" transform="scale(0.015625)"/>
       </defs>
       <use xlink:href="#CMR17-34" transform="scale(0.996264)"/>
      </g>
     </g>
    </g>
    <g id="xtick_6">
     <g id="line2d_11">
      <g>
       <use xlink:href="#m9d0a1ae2a1" x="456.027961" y="384.48" style="stroke: #000000; stroke-width: 0.8"/>
      </g>
     </g>
     <g id="line2d_12">
      <g>
       <use xlink:href="#md5f58dab74" x="456.027961" y="51.84" style="stroke: #000000; stroke-width: 0.8"/>
      </g>
     </g>
     <g id="text_6">
      <!-- $\mathdefault{5}$ -->
      <g transform="translate(452.371309 401.85359) scale(0.14994 -0.14994)">
       <defs>
        <path id="CMR17-35" d="M 730 3750
C 794 3724 1056 3641 1325 3641
C 1920 3641 2246 3961 2432 4140
C 2432 4191 2432 4224 2394 4224
C 2387 4224 2374 4224 2323 4198
C 2099 4102 1837 4032 1517 4032
C 1325 4032 1037 4055 723 4191
C 653 4224 640 4224 634 4224
C 602 4224 595 4217 595 4090
L 595 2231
C 595 2113 595 2080 659 2080
C 691 2080 704 2093 736 2139
C 941 2435 1222 2560 1542 2560
C 1766 2560 2246 2415 2246 1293
C 2246 1087 2246 716 2054 422
C 1894 159 1645 25 1370 25
C 947 25 518 319 403 812
C 429 806 480 793 506 793
C 589 793 749 838 749 1036
C 749 1209 627 1280 506 1280
C 358 1280 262 1190 262 1011
C 262 454 704 -128 1382 -128
C 2042 -128 2669 441 2669 1267
C 2669 2054 2170 2662 1549 2662
C 1222 2662 947 2540 730 2304
L 730 3750
z
" transform="scale(0.015625)"/>
       </defs>
       <use xlink:href="#CMR17-35" transform="scale(0.996264)"/>
      </g>
     </g>
    </g>
    <g id="xtick_7">
     <g id="line2d_13">
      <g>
       <use xlink:href="#m9d0a1ae2a1" x="514.744297" y="384.48" style="stroke: #000000; stroke-width: 0.8"/>
      </g>
     </g>
     <g id="line2d_14">
      <g>
       <use xlink:href="#md5f58dab74" x="514.744297" y="51.84" style="stroke: #000000; stroke-width: 0.8"/>
      </g>
     </g>
     <g id="text_7">
      <!-- $\mathdefault{6}$ -->
      <g transform="translate(511.087645 401.85359) scale(0.14994 -0.14994)">
       <defs>
        <path id="CMR17-36" d="M 678 2198
C 678 3712 1395 4076 1811 4076
C 1946 4076 2272 4049 2400 3782
C 2298 3782 2106 3782 2106 3558
C 2106 3385 2246 3328 2336 3328
C 2394 3328 2566 3353 2566 3571
C 2566 3987 2246 4224 1805 4224
C 1043 4224 243 3411 243 2011
C 243 257 966 -128 1478 -128
C 2099 -128 2688 431 2688 1295
C 2688 2101 2170 2688 1517 2688
C 1126 2688 838 2430 678 1979
L 678 2198
z
M 1478 25
C 691 25 691 1212 691 1450
C 691 1914 909 2585 1504 2585
C 1613 2585 1926 2585 2138 2140
C 2253 1889 2253 1624 2253 1302
C 2253 954 2253 696 2118 438
C 1978 173 1773 25 1478 25
z
" transform="scale(0.015625)"/>
       </defs>
       <use xlink:href="#CMR17-36" transform="scale(0.996264)"/>
      </g>
     </g>
    </g>
    <g id="text_8">
     <!-- $x$ -->
     <g transform="translate(341.920026 421.211479) scale(0.18 -0.18)">
      <defs>
       <path id="CMMI12-78" d="M 3034 2624
C 2829 2585 2752 2431 2752 2310
C 2752 2156 2874 2105 2963 2105
C 3155 2105 3290 2271 3290 2444
C 3290 2694 2982 2816 2714 2816
C 2323 2816 2106 2451 2048 2329
C 1901 2790 1504 2816 1389 2816
C 736 2816 390 1993 390 1849
C 390 1823 416 1790 461 1790
C 512 1790 525 1829 538 1855
C 755 2572 1184 2687 1370 2687
C 1658 2687 1715 2438 1715 2284
C 1715 2143 1677 1993 1600 1678
L 1382 778
C 1286 390 1101 64 762 64
C 730 64 570 64 435 126
C 666 166 717 358 717 435
C 717 563 621 640 499 640
C 346 640 179 505 179 300
C 179 57 480 -64 755 -64
C 1062 -64 1280 153 1414 415
C 1517 64 1837 -64 2074 -64
C 2726 -64 3072 751 3072 896
C 3072 929 3046 955 3008 955
C 2950 955 2944 922 2925 870
C 2752 300 2381 64 2093 64
C 1869 64 1747 204 1747 467
C 1747 607 1773 712 1875 1146
L 2099 2039
C 2195 2425 2413 2687 2707 2687
C 2720 2687 2899 2687 3034 2624
z
" transform="scale(0.015625)"/>
      </defs>
      <use xlink:href="#CMMI12-78" transform="scale(0.996264)"/>
     </g>
    </g>
   </g>
   <g id="matplotlib.axis_2">
    <g id="ytick_1">
     <g id="line2d_15">
      <defs>
       <path id="mfc86905767" d="M 0 0
L -3.5 0
" style="stroke: #000000; stroke-width: 0.8"/>
      </defs>
      <g>
       <use xlink:href="#mfc86905767" x="144" y="369.360187" style="stroke: #000000; stroke-width: 0.8"/>
      </g>
     </g>
     <g id="line2d_16">
      <defs>
       <path id="m21bfda210e" d="M 0 0
L 3.5 0
" style="stroke: #000000; stroke-width: 0.8"/>
      </defs>
      <g>
       <use xlink:href="#m21bfda210e" x="549.818182" y="369.360187" style="stroke: #000000; stroke-width: 0.8"/>
      </g>
     </g>
     <g id="text_9">
      <!-- $\mathdefault{−1.00}$ -->
      <g transform="translate(99.378675 374.546982) scale(0.14994 -0.14994)">
       <defs>
        <path id="CMSY10-0" d="M 4218 1472
C 4326 1472 4442 1472 4442 1600
C 4442 1728 4326 1728 4218 1728
L 755 1728
C 646 1728 531 1728 531 1600
C 531 1472 646 1472 755 1472
L 4218 1472
z
" transform="scale(0.015625)"/>
        <path id="CMMI12-3a" d="M 1178 307
C 1178 492 1024 620 870 620
C 685 620 557 467 557 313
C 557 128 710 0 864 0
C 1050 0 1178 153 1178 307
z
" transform="scale(0.015625)"/>
       </defs>
       <use xlink:href="#CMSY10-0" transform="scale(0.996264)"/>
       <use xlink:href="#CMR17-31" transform="translate(77.487468 0) scale(0.996264)"/>
       <use xlink:href="#CMMI12-3a" transform="translate(123.177945 0) scale(0.996264)"/>
       <use xlink:href="#CMR17-30" transform="translate(150.275122 0) scale(0.996264)"/>
       <use xlink:href="#CMR17-30" transform="translate(195.965599 0) scale(0.996264)"/>
      </g>
     </g>
    </g>
    <g id="ytick_2">
     <g id="line2d_17">
      <g>
       <use xlink:href="#mfc86905767" x="144" y="331.56014" style="stroke: #000000; stroke-width: 0.8"/>
      </g>
     </g>
     <g id="line2d_18">
      <g>
       <use xlink:href="#m21bfda210e" x="549.818182" y="331.56014" style="stroke: #000000; stroke-width: 0.8"/>
      </g>
     </g>
     <g id="text_10">
      <!-- $\mathdefault{−0.75}$ -->
      <g transform="translate(99.378675 336.746935) scale(0.14994 -0.14994)">
       <defs>
        <path id="CMR17-37" d="M 2886 3955
L 2886 4096
L 1382 4096
C 634 4096 621 4166 595 4288
L 480 4288
L 294 3104
L 410 3104
C 429 3226 474 3552 550 3673
C 589 3724 1062 3724 1171 3724
L 2579 3724
L 1869 2670
C 1395 1961 1069 1003 1069 166
C 1069 89 1069 -128 1299 -128
C 1530 -128 1530 89 1530 172
L 1530 466
C 1530 1514 1709 2204 2003 2644
L 2886 3955
z
" transform="scale(0.015625)"/>
       </defs>
       <use xlink:href="#CMSY10-0" transform="scale(0.996264)"/>
       <use xlink:href="#CMR17-30" transform="translate(77.487468 0) scale(0.996264)"/>
       <use xlink:href="#CMMI12-3a" transform="translate(123.177945 0) scale(0.996264)"/>
       <use xlink:href="#CMR17-37" transform="translate(150.275122 0) scale(0.996264)"/>
       <use xlink:href="#CMR17-35" transform="translate(195.965599 0) scale(0.996264)"/>
      </g>
     </g>
    </g>
    <g id="ytick_3">
     <g id="line2d_19">
      <g>
       <use xlink:href="#mfc86905767" x="144" y="293.760093" style="stroke: #000000; stroke-width: 0.8"/>
      </g>
     </g>
     <g id="line2d_20">
      <g>
       <use xlink:href="#m21bfda210e" x="549.818182" y="293.760093" style="stroke: #000000; stroke-width: 0.8"/>
      </g>
     </g>
     <g id="text_11">
      <!-- $\mathdefault{−0.50}$ -->
      <g transform="translate(99.378675 298.946888) scale(0.14994 -0.14994)">
       <use xlink:href="#CMSY10-0" transform="scale(0.996264)"/>
       <use xlink:href="#CMR17-30" transform="translate(77.487468 0) scale(0.996264)"/>
       <use xlink:href="#CMMI12-3a" transform="translate(123.177945 0) scale(0.996264)"/>
       <use xlink:href="#CMR17-35" transform="translate(150.275122 0) scale(0.996264)"/>
       <use xlink:href="#CMR17-30" transform="translate(195.965599 0) scale(0.996264)"/>
      </g>
     </g>
    </g>
    <g id="ytick_4">
     <g id="line2d_21">
      <g>
       <use xlink:href="#mfc86905767" x="144" y="255.960047" style="stroke: #000000; stroke-width: 0.8"/>
      </g>
     </g>
     <g id="line2d_22">
      <g>
       <use xlink:href="#m21bfda210e" x="549.818182" y="255.960047" style="stroke: #000000; stroke-width: 0.8"/>
      </g>
     </g>
     <g id="text_12">
      <!-- $\mathdefault{−0.25}$ -->
      <g transform="translate(99.378675 261.146842) scale(0.14994 -0.14994)">
       <use xlink:href="#CMSY10-0" transform="scale(0.996264)"/>
       <use xlink:href="#CMR17-30" transform="translate(77.487468 0) scale(0.996264)"/>
       <use xlink:href="#CMMI12-3a" transform="translate(123.177945 0) scale(0.996264)"/>
       <use xlink:href="#CMR17-32" transform="translate(150.275122 0) scale(0.996264)"/>
       <use xlink:href="#CMR17-35" transform="translate(195.965599 0) scale(0.996264)"/>
      </g>
     </g>
    </g>
    <g id="ytick_5">
     <g id="line2d_23">
      <g>
       <use xlink:href="#mfc86905767" x="144" y="218.16" style="stroke: #000000; stroke-width: 0.8"/>
      </g>
     </g>
     <g id="line2d_24">
      <g>
       <use xlink:href="#m21bfda210e" x="549.818182" y="218.16" style="stroke: #000000; stroke-width: 0.8"/>
      </g>
     </g>
     <g id="text_13">
      <!-- $\mathdefault{0.00}$ -->
      <g transform="translate(110.997138 223.346795) scale(0.14994 -0.14994)">
       <use xlink:href="#CMR17-30" transform="scale(0.996264)"/>
       <use xlink:href="#CMMI12-3a" transform="translate(45.690477 0) scale(0.996264)"/>
       <use xlink:href="#CMR17-30" transform="translate(72.787654 0) scale(0.996264)"/>
       <use xlink:href="#CMR17-30" transform="translate(118.478131 0) scale(0.996264)"/>
      </g>
     </g>
    </g>
    <g id="ytick_6">
     <g id="line2d_25">
      <g>
       <use xlink:href="#mfc86905767" x="144" y="180.359953" style="stroke: #000000; stroke-width: 0.8"/>
      </g>
     </g>
     <g id="line2d_26">
      <g>
       <use xlink:href="#m21bfda210e" x="549.818182" y="180.359953" style="stroke: #000000; stroke-width: 0.8"/>
      </g>
     </g>
     <g id="text_14">
      <!-- $\mathdefault{0.25}$ -->
      <g transform="translate(110.997138 185.546748) scale(0.14994 -0.14994)">
       <use xlink:href="#CMR17-30" transform="scale(0.996264)"/>
       <use xlink:href="#CMMI12-3a" transform="translate(45.690477 0) scale(0.996264)"/>
       <use xlink:href="#CMR17-32" transform="translate(72.787654 0) scale(0.996264)"/>
       <use xlink:href="#CMR17-35" transform="translate(118.478131 0) scale(0.996264)"/>
      </g>
     </g>
    </g>
    <g id="ytick_7">
     <g id="line2d_27">
      <g>
       <use xlink:href="#mfc86905767" x="144" y="142.559907" style="stroke: #000000; stroke-width: 0.8"/>
      </g>
     </g>
     <g id="line2d_28">
      <g>
       <use xlink:href="#m21bfda210e" x="549.818182" y="142.559907" style="stroke: #000000; stroke-width: 0.8"/>
      </g>
     </g>
     <g id="text_15">
      <!-- $\mathdefault{0.50}$ -->
      <g transform="translate(110.997138 147.746701) scale(0.14994 -0.14994)">
       <use xlink:href="#CMR17-30" transform="scale(0.996264)"/>
       <use xlink:href="#CMMI12-3a" transform="translate(45.690477 0) scale(0.996264)"/>
       <use xlink:href="#CMR17-35" transform="translate(72.787654 0) scale(0.996264)"/>
       <use xlink:href="#CMR17-30" transform="translate(118.478131 0) scale(0.996264)"/>
      </g>
     </g>
    </g>
    <g id="ytick_8">
     <g id="line2d_29">
      <g>
       <use xlink:href="#mfc86905767" x="144" y="104.75986" style="stroke: #000000; stroke-width: 0.8"/>
      </g>
     </g>
     <g id="line2d_30">
      <g>
       <use xlink:href="#m21bfda210e" x="549.818182" y="104.75986" style="stroke: #000000; stroke-width: 0.8"/>
      </g>
     </g>
     <g id="text_16">
      <!-- $\mathdefault{0.75}$ -->
      <g transform="translate(110.997138 109.946655) scale(0.14994 -0.14994)">
       <use xlink:href="#CMR17-30" transform="scale(0.996264)"/>
       <use xlink:href="#CMMI12-3a" transform="translate(45.690477 0) scale(0.996264)"/>
       <use xlink:href="#CMR17-37" transform="translate(72.787654 0) scale(0.996264)"/>
       <use xlink:href="#CMR17-35" transform="translate(118.478131 0) scale(0.996264)"/>
      </g>
     </g>
    </g>
    <g id="ytick_9">
     <g id="line2d_31">
      <g>
       <use xlink:href="#mfc86905767" x="144" y="66.959813" style="stroke: #000000; stroke-width: 0.8"/>
      </g>
     </g>
     <g id="line2d_32">
      <g>
       <use xlink:href="#m21bfda210e" x="549.818182" y="66.959813" style="stroke: #000000; stroke-width: 0.8"/>
      </g>
     </g>
     <g id="text_17">
      <!-- $\mathdefault{1.00}$ -->
      <g transform="translate(110.997138 72.146608) scale(0.14994 -0.14994)">
       <use xlink:href="#CMR17-31" transform="scale(0.996264)"/>
       <use xlink:href="#CMMI12-3a" transform="translate(45.690477 0) scale(0.996264)"/>
       <use xlink:href="#CMR17-30" transform="translate(72.787654 0) scale(0.996264)"/>
       <use xlink:href="#CMR17-30" transform="translate(118.478131 0) scale(0.996264)"/>
      </g>
     </g>
    </g>
    <g id="text_18">
     <!-- $z$ -->
     <g transform="translate(91.89061 222.238418) rotate(-90) scale(0.18 -0.18)">
      <defs>
       <path id="CMMI12-7a" d="M 813 486
C 1088 809 1312 1015 1632 1313
C 2016 1657 2182 1822 2272 1922
C 2720 2371 2944 2713 2944 2764
C 2944 2816 2893 2816 2880 2816
C 2835 2816 2822 2790 2790 2745
C 2630 2470 2477 2368 2310 2368
C 2176 2368 2106 2403 1984 2547
C 1850 2707 1741 2816 1555 2816
C 1088 2816 806 2265 806 2127
C 806 2107 813 2067 870 2067
C 922 2067 928 2094 947 2140
C 1056 2387 1363 2415 1485 2415
C 1619 2415 1747 2387 1882 2342
C 2125 2239 2227 2239 2291 2239
C 2336 2239 2362 2239 2394 2246
C 2182 1988 1837 1670 1549 1399
L 902 783
C 512 380 275 32 275 -13
C 275 -52 307 -64 346 -64
C 384 -64 390 -58 435 19
C 538 179 742 384 979 384
C 1114 384 1178 356 1306 211
C 1427 70 1536 -64 1741 -64
C 2368 -64 2726 723 2726 876
C 2726 902 2720 942 2656 942
C 2605 942 2598 915 2579 849
C 2438 460 2061 336 1811 336
C 1677 336 1549 364 1414 409
C 1158 512 1088 512 1005 512
C 941 512 870 512 813 486
z
" transform="scale(0.015625)"/>
      </defs>
      <use xlink:href="#CMMI12-7a" transform="scale(0.996264)"/>
     </g>
    </g>
   </g>
   <g id="line2d_33">
    <path d="M 162.446281 218.16
L 175.740898 184.216857
L 182.757501 166.893555
L 188.66622 152.862861
L 193.836349 141.123278
L 198.637183 130.754837
L 203.068722 121.700796
L 207.130966 113.88251
L 211.19321 106.563144
L 214.886159 100.371639
L 218.209813 95.196874
L 221.533467 90.415996
L 224.857122 86.04432
L 227.811481 82.513266
L 230.76584 79.325553
L 233.7202 76.48925
L 236.305264 74.301418
L 238.890328 72.392383
L 241.475393 70.765847
L 244.060457 69.424962
L 246.276227 68.504971
L 248.491996 67.798074
L 250.707766 67.305277
L 252.923535 67.027282
L 255.139305 66.964486
L 257.355074 67.116977
L 259.570844 67.484538
L 261.786613 68.066646
L 264.002383 68.862472
L 266.218152 69.870883
L 268.803216 71.314114
L 271.388281 73.041932
L 273.973345 75.05099
L 276.55841 77.337394
L 279.143474 79.896713
L 282.097833 83.149443
L 285.052193 86.743905
L 288.006552 90.671
L 291.330206 95.474175
L 294.65386 100.670348
L 298.34681 106.884515
L 302.039759 113.538714
L 306.102003 121.335116
L 310.533542 130.367282
L 314.965081 139.899303
L 320.13521 151.579207
L 325.674633 164.66339
L 332.321942 180.981902
L 340.815725 202.497148
L 363.342715 259.927825
L 369.990023 276.076713
L 375.529447 288.976201
L 380.699576 300.449698
L 385.131115 309.779886
L 389.562654 318.588428
L 393.624898 326.161785
L 397.317847 332.59915
L 401.010796 338.583972
L 404.33445 343.563789
L 407.658104 348.141899
L 410.612464 351.86221
L 413.566823 355.244102
L 416.521182 358.279013
L 419.106247 360.643868
L 421.691311 362.732589
L 424.276376 364.541127
L 426.86144 366.065979
L 429.446504 367.304187
L 431.662274 368.135531
L 433.878043 368.753325
L 436.093813 369.156688
L 438.309582 369.345048
L 440.525352 369.318134
L 442.741121 369.075987
L 444.956891 368.61895
L 447.17266 367.947675
L 449.38843 367.063116
L 451.604199 365.966535
L 454.189264 364.421316
L 456.774328 362.592642
L 459.359392 360.484056
L 461.944457 358.099647
L 464.898816 355.042814
L 467.853175 351.639512
L 470.807535 347.898353
L 474.131189 343.297529
L 477.454843 338.295852
L 480.778498 332.909344
L 484.471447 326.494015
L 488.164396 319.650286
L 492.22664 311.659728
L 496.658179 302.433931
L 501.459013 291.899567
L 506.629142 280.005963
L 512.53786 265.832049
L 519.554464 248.386004
L 529.525426 222.914065
L 531.371901 218.16
L 531.371901 218.16
" clip-path="url(#pd7d9476a33)" style="fill: none; stroke: #000000; stroke-width: 2; stroke-linecap: square"/>
   </g>
   <g id="line2d_34">
    <path d="M 162.446281 218.16
L 170.570769 176.849364
L 175.002308 155.447488
L 178.695257 138.682294
L 182.018911 124.660272
L 184.973271 113.195952
L 187.558335 104.032175
L 189.774105 96.878823
L 191.989874 90.415996
L 194.205644 84.680488
L 196.052118 80.480179
L 197.898593 76.824316
L 199.745067 73.727358
L 201.222247 71.660508
L 202.699427 69.96447
L 204.176606 68.643536
L 205.284491 67.901045
L 206.392376 67.372508
L 207.500261 67.058677
L 208.608145 66.96
L 209.71603 67.076616
L 210.823915 67.408361
L 211.9318 67.95476
L 213.039684 68.715037
L 214.516864 70.059523
L 215.994044 71.778873
L 217.471223 73.868734
L 218.948403 76.323818
L 220.794878 79.896713
L 222.641352 84.016362
L 224.487827 88.666475
L 226.703596 94.920789
L 228.919366 101.876774
L 231.50443 110.825876
L 234.089494 120.606632
L 237.043854 132.7055
L 240.367508 147.343799
L 244.060457 164.66339
L 248.491996 186.537701
L 255.877894 224.339582
L 262.894498 259.927825
L 267.326037 281.304859
L 271.018986 298.041809
L 274.34264 312.032938
L 277.296999 323.465771
L 279.882064 332.59915
L 282.097833 339.724516
L 284.313603 346.157746
L 286.529372 351.86221
L 288.375847 356.035674
L 290.222321 359.663916
L 292.068796 362.732589
L 293.545976 364.776407
L 295.023155 366.449117
L 296.500335 367.746486
L 297.60822 368.471184
L 298.716105 368.981853
L 299.823989 369.277767
L 300.931874 369.358505
L 302.039759 369.22395
L 303.147644 368.874296
L 304.255528 368.310039
L 305.363413 367.531984
L 306.840593 366.16396
L 308.317772 364.421316
L 309.794952 362.308463
L 311.272132 359.83075
L 313.118606 356.230163
L 314.965081 352.083586
L 316.811555 347.407415
L 319.027325 341.123126
L 321.243094 334.138738
L 323.828159 325.158699
L 326.413223 315.349607
L 329.367582 303.221817
L 332.691237 288.555742
L 336.384186 271.211617
L 340.815725 249.317174
L 348.201623 211.505362
L 355.218226 175.9354
L 359.649765 154.583419
L 363.342715 137.874878
L 366.666369 123.914781
L 369.620728 112.513547
L 372.205793 103.410656
L 374.421562 96.313346
L 376.637332 89.909779
L 378.853101 84.236414
L 380.699576 80.089837
L 382.54605 76.48925
L 384.02323 74.011537
L 385.50041 71.898684
L 386.977589 70.15604
L 388.454769 68.788016
L 389.562654 68.009961
L 390.670538 67.445704
L 391.778423 67.09605
L 392.886308 66.961495
L 393.994193 67.042233
L 395.102077 67.338147
L 396.209962 67.848816
L 397.317847 68.573514
L 398.425732 69.511208
L 399.902911 71.090443
L 401.380091 73.041932
L 402.85727 75.360737
L 404.33445 78.040987
L 406.180925 81.889161
L 408.027399 86.276212
L 409.873874 91.184789
L 412.089643 97.736028
L 414.305413 104.972909
L 416.890477 114.227337
L 419.475542 124.287062
L 422.429901 136.669718
L 425.753555 151.579207
L 429.815799 170.939419
L 434.985928 196.834524
L 449.757725 271.65661
L 453.819969 290.650989
L 457.143623 305.176744
L 460.097982 317.15873
L 462.683047 326.825174
L 465.268111 335.649652
L 467.483881 342.491336
L 469.69965 348.625131
L 471.546125 353.170557
L 473.392599 357.18209
L 475.239074 360.643868
L 476.716253 363.008193
L 478.193433 365.005886
L 479.670613 366.631891
L 481.147792 367.882092
L 482.255677 368.571182
L 483.363562 369.046101
L 484.471447 369.306173
L 485.579331 369.351028
L 486.687216 369.180603
L 487.795101 368.795138
L 488.902986 368.195185
L 490.01087 367.381596
L 491.48805 365.966535
L 492.96523 364.177354
L 494.442409 362.018582
L 495.919589 359.495684
L 497.766064 355.839821
L 499.612538 351.639512
L 501.459013 346.911365
L 503.674782 340.567311
L 505.890552 333.526322
L 508.475616 324.484679
L 511.060681 314.619204
L 514.01504 302.433931
L 517.338694 287.712742
L 521.031643 270.320063
L 525.832477 246.520113
L 531.371901 218.16
L 531.371901 218.16
" clip-path="url(#pd7d9476a33)" style="fill: none; stroke-dasharray: 7.4,3.2; stroke-dashoffset: 0; stroke: #ff0000; stroke-width: 2"/>
   </g>
   <g id="patch_3">
    <path d="M 144 384.48
L 144 51.84
" style="fill: none; stroke: #000000; stroke-width: 0.8; stroke-linejoin: miter; stroke-linecap: square"/>
   </g>
   <g id="patch_4">
    <path d="M 549.818182 384.48
L 549.818182 51.84
" style="fill: none; stroke: #000000; stroke-width: 0.8; stroke-linejoin: miter; stroke-linecap: square"/>
   </g>
   <g id="patch_5">
    <path d="M 144 384.48
L 549.818182 384.48
" style="fill: none; stroke: #000000; stroke-width: 0.8; stroke-linejoin: miter; stroke-linecap: square"/>
   </g>
   <g id="patch_6">
    <path d="M 144 51.84
L 549.818182 51.84
" style="fill: none; stroke: #000000; stroke-width: 0.8; stroke-linejoin: miter; stroke-linecap: square"/>
   </g>
   <g id="legend_1">
    <g id="patch_7">
     <path d="M 439.432529 120.043207
L 537.218182 120.043207
Q 540.818182 120.043207 540.818182 116.443207
L 540.818182 64.44
Q 540.818182 60.84 537.218182 60.84
L 439.432529 60.84
Q 435.832529 60.84 435.832529 64.44
L 435.832529 116.443207
Q 435.832529 120.043207 439.432529 120.043207
L 439.432529 120.043207
z
" style="fill: none; opacity: 0.8; stroke: #cccccc; stroke-linejoin: miter"/>
    </g>
    <g id="line2d_35">
     <path d="M 443.032529 75.17342
L 461.032529 75.17342
L 479.032529 75.17342
" style="fill: none; stroke: #000000; stroke-width: 2; stroke-linecap: square"/>
    </g>
    <g id="text_19">
     <!-- $\sin (x)$ -->
     <g transform="translate(482.632529 81.47342) scale(0.18 -0.18)">
      <defs>
       <path id="CMR17-73" d="M 1978 2688
C 1978 2803 1971 2809 1933 2809
C 1907 2809 1901 2803 1824 2707
C 1805 2681 1747 2617 1728 2592
C 1523 2809 1235 2816 1126 2816
C 416 2816 160 2444 160 2073
C 160 1497 813 1363 998 1324
C 1402 1241 1542 1216 1677 1100
C 1760 1024 1901 883 1901 652
C 1901 384 1747 38 1158 38
C 602 38 403 460 288 1024
C 269 1113 269 1120 218 1120
C 166 1120 160 1113 160 985
L 160 64
C 160 -52 166 -58 205 -58
C 237 -58 243 -52 275 0
C 314 57 410 211 448 275
C 576 102 800 -64 1158 -64
C 1792 -64 2131 281 2131 780
C 2131 1107 1958 1280 1875 1356
C 1683 1555 1459 1600 1190 1651
C 838 1728 390 1817 390 2208
C 390 2374 480 2726 1126 2726
C 1811 2726 1850 2086 1862 1881
C 1869 1849 1901 1843 1920 1843
C 1978 1843 1978 1862 1978 1971
L 1978 2688
z
" transform="scale(0.015625)"/>
       <path id="CMR17-69" d="M 992 3961
C 992 4102 877 4224 730 4224
C 589 4224 467 4108 467 3961
C 467 3820 582 3699 730 3699
C 870 3699 992 3814 992 3961
z
M 243 2745
L 243 2579
C 602 2579 653 2540 653 2231
L 653 443
C 653 198 627 166 218 166
L 218 0
C 371 12 646 12 806 12
C 960 12 1222 12 1370 0
L 1370 166
C 992 166 979 205 979 436
L 979 2816
L 243 2745
z
" transform="scale(0.015625)"/>
       <path id="CMR17-6e" d="M 2656 1954
C 2656 2282 2592 2816 1837 2816
C 1331 2816 1069 2424 973 2166
L 966 2166
L 966 2816
L 211 2745
L 211 2578
C 589 2578 646 2540 646 2231
L 646 443
C 646 198 621 166 211 166
L 211 0
C 365 12 646 12 813 12
C 979 12 1267 12 1421 0
L 1421 166
C 1011 166 986 192 986 443
L 986 1678
C 986 2269 1344 2713 1792 2713
C 2266 2713 2317 2289 2317 1980
L 2317 443
C 2317 198 2291 166 1882 166
L 1882 0
C 2035 12 2317 12 2483 12
C 2650 12 2938 12 3091 0
L 3091 166
C 2682 166 2656 192 2656 443
L 2656 1954
z
" transform="scale(0.015625)"/>
       <path id="CMR17-28" d="M 1958 -1562
C 1958 -1556 1958 -1543 1939 -1524
C 1645 -1223 858 -403 858 1596
C 858 3595 1632 4408 1946 4729
C 1946 4735 1958 4748 1958 4767
C 1958 4787 1939 4800 1914 4800
C 1843 4800 1299 4325 986 3620
C 666 2909 576 2218 576 1603
C 576 1141 621 360 1005 -467
C 1312 -1133 1837 -1600 1914 -1600
C 1946 -1600 1958 -1588 1958 -1562
z
" transform="scale(0.015625)"/>
       <path id="CMR17-29" d="M 1683 1596
C 1683 2057 1638 2839 1254 3665
C 947 4332 422 4800 346 4800
C 326 4800 301 4793 301 4761
C 301 4748 307 4742 314 4729
C 621 4408 1402 3595 1402 1603
C 1402 -396 627 -1210 314 -1530
C 307 -1543 301 -1549 301 -1562
C 301 -1594 326 -1600 346 -1600
C 416 -1600 960 -1127 1274 -422
C 1594 289 1683 981 1683 1596
z
" transform="scale(0.015625)"/>
      </defs>
      <use xlink:href="#CMR17-73" transform="scale(0.996264)"/>
      <use xlink:href="#CMR17-69" transform="translate(35.801338 0) scale(0.996264)"/>
      <use xlink:href="#CMR17-6e" transform="translate(60.672396 0) scale(0.996264)"/>
      <use xlink:href="#CMR17-28" transform="translate(111.567766 0) scale(0.996264)"/>
      <use xlink:href="#CMMI12-78" transform="translate(146.848534 0) scale(0.996264)"/>
      <use xlink:href="#CMR17-29" transform="translate(202.282593 0) scale(0.996264)"/>
     </g>
    </g>
    <g id="line2d_36">
     <path d="M 443.032529 102.075024
L 461.032529 102.075024
L 479.032529 102.075024
" style="fill: none; stroke-dasharray: 7.4,3.2; stroke-dashoffset: 0; stroke: #ff0000; stroke-width: 2"/>
    </g>
    <g id="text_20">
     <!-- $\sin (2x)$ -->
     <g transform="translate(482.632529 108.375024) scale(0.18 -0.18)">
      <use xlink:href="#CMR17-73" transform="scale(0.996264)"/>
      <use xlink:href="#CMR17-69" transform="translate(35.801338 0) scale(0.996264)"/>
      <use xlink:href="#CMR17-6e" transform="translate(60.672396 0) scale(0.996264)"/>
      <use xlink:href="#CMR17-28" transform="translate(111.567766 0) scale(0.996264)"/>
      <use xlink:href="#CMR17-32" transform="translate(146.848534 0) scale(0.996264)"/>
      <use xlink:href="#CMMI12-78" transform="translate(192.539011 0) scale(0.996264)"/>
      <use xlink:href="#CMR17-29" transform="translate(247.97307 0) scale(0.996264)"/>
     </g>
    </g>
   </g>
  </g>
  <g id="axes_2">
   <g id="patch_8">
    <path d="M 630.981818 384.48
L 1036.8 384.48
L 1036.8 51.84
L 630.981818 51.84
L 630.981818 384.48
z
" style="fill: none"/>
   </g>
   <g id="matplotlib.axis_3">
    <g id="xtick_8">
     <g id="line2d_37">
      <g>
       <use xlink:href="#m9d0a1ae2a1" x="655.929781" y="384.48" style="stroke: #000000; stroke-width: 0.8"/>
      </g>
     </g>
     <g id="line2d_38">
      <g>
       <use xlink:href="#md5f58dab74" x="655.929781" y="51.84" style="stroke: #000000; stroke-width: 0.8"/>
      </g>
     </g>
     <g id="text_21">
      <!-- $\mathdefault{−0.6}$ -->
      <g transform="translate(640.775771 401.85359) scale(0.14994 -0.14994)">
       <use xlink:href="#CMSY10-0" transform="scale(0.996264)"/>
       <use xlink:href="#CMR17-30" transform="translate(77.487468 0) scale(0.996264)"/>
       <use xlink:href="#CMMI12-3a" transform="translate(123.177945 0) scale(0.996264)"/>
       <use xlink:href="#CMR17-36" transform="translate(150.275122 0) scale(0.996264)"/>
      </g>
     </g>
    </g>
    <g id="xtick_9">
     <g id="line2d_39">
      <g>
       <use xlink:href="#m9d0a1ae2a1" x="714.941174" y="384.48" style="stroke: #000000; stroke-width: 0.8"/>
      </g>
     </g>
     <g id="line2d_40">
      <g>
       <use xlink:href="#md5f58dab74" x="714.941174" y="51.84" style="stroke: #000000; stroke-width: 0.8"/>
      </g>
     </g>
     <g id="text_22">
      <!-- $\mathdefault{−0.4}$ -->
      <g transform="translate(699.787164 401.85359) scale(0.14994 -0.14994)">
       <use xlink:href="#CMSY10-0" transform="scale(0.996264)"/>
       <use xlink:href="#CMR17-30" transform="translate(77.487468 0) scale(0.996264)"/>
       <use xlink:href="#CMMI12-3a" transform="translate(123.177945 0) scale(0.996264)"/>
       <use xlink:href="#CMR17-34" transform="translate(150.275122 0) scale(0.996264)"/>
      </g>
     </g>
    </g>
    <g id="xtick_10">
     <g id="line2d_41">
      <g>
       <use xlink:href="#m9d0a1ae2a1" x="773.952567" y="384.48" style="stroke: #000000; stroke-width: 0.8"/>
      </g>
     </g>
     <g id="line2d_42">
      <g>
       <use xlink:href="#md5f58dab74" x="773.952567" y="51.84" style="stroke: #000000; stroke-width: 0.8"/>
      </g>
     </g>
     <g id="text_23">
      <!-- $\mathdefault{−0.2}$ -->
      <g transform="translate(758.798557 401.85359) scale(0.14994 -0.14994)">
       <use xlink:href="#CMSY10-0" transform="scale(0.996264)"/>
       <use xlink:href="#CMR17-30" transform="translate(77.487468 0) scale(0.996264)"/>
       <use xlink:href="#CMMI12-3a" transform="translate(123.177945 0) scale(0.996264)"/>
       <use xlink:href="#CMR17-32" transform="translate(150.275122 0) scale(0.996264)"/>
      </g>
     </g>
    </g>
    <g id="xtick_11">
     <g id="line2d_43">
      <g>
       <use xlink:href="#m9d0a1ae2a1" x="832.96396" y="384.48" style="stroke: #000000; stroke-width: 0.8"/>
      </g>
     </g>
     <g id="line2d_44">
      <g>
       <use xlink:href="#md5f58dab74" x="832.96396" y="51.84" style="stroke: #000000; stroke-width: 0.8"/>
      </g>
     </g>
     <g id="text_24">
      <!-- $\mathdefault{0.0}$ -->
      <g transform="translate(823.619181 401.85359) scale(0.14994 -0.14994)">
       <use xlink:href="#CMR17-30" transform="scale(0.996264)"/>
       <use xlink:href="#CMMI12-3a" transform="translate(45.690477 0) scale(0.996264)"/>
       <use xlink:href="#CMR17-30" transform="translate(72.787654 0) scale(0.996264)"/>
      </g>
     </g>
    </g>
    <g id="xtick_12">
     <g id="line2d_45">
      <g>
       <use xlink:href="#m9d0a1ae2a1" x="891.975353" y="384.48" style="stroke: #000000; stroke-width: 0.8"/>
      </g>
     </g>
     <g id="line2d_46">
      <g>
       <use xlink:href="#md5f58dab74" x="891.975353" y="51.84" style="stroke: #000000; stroke-width: 0.8"/>
      </g>
     </g>
     <g id="text_25">
      <!-- $\mathdefault{0.2}$ -->
      <g transform="translate(882.630574 401.85359) scale(0.14994 -0.14994)">
       <use xlink:href="#CMR17-30" transform="scale(0.996264)"/>
       <use xlink:href="#CMMI12-3a" transform="translate(45.690477 0) scale(0.996264)"/>
       <use xlink:href="#CMR17-32" transform="translate(72.787654 0) scale(0.996264)"/>
      </g>
     </g>
    </g>
    <g id="xtick_13">
     <g id="line2d_47">
      <g>
       <use xlink:href="#m9d0a1ae2a1" x="950.986746" y="384.48" style="stroke: #000000; stroke-width: 0.8"/>
      </g>
     </g>
     <g id="line2d_48">
      <g>
       <use xlink:href="#md5f58dab74" x="950.986746" y="51.84" style="stroke: #000000; stroke-width: 0.8"/>
      </g>
     </g>
     <g id="text_26">
      <!-- $\mathdefault{0.4}$ -->
      <g transform="translate(941.641967 401.85359) scale(0.14994 -0.14994)">
       <use xlink:href="#CMR17-30" transform="scale(0.996264)"/>
       <use xlink:href="#CMMI12-3a" transform="translate(45.690477 0) scale(0.996264)"/>
       <use xlink:href="#CMR17-34" transform="translate(72.787654 0) scale(0.996264)"/>
      </g>
     </g>
    </g>
    <g id="xtick_14">
     <g id="line2d_49">
      <g>
       <use xlink:href="#m9d0a1ae2a1" x="1009.998139" y="384.48" style="stroke: #000000; stroke-width: 0.8"/>
      </g>
     </g>
     <g id="line2d_50">
      <g>
       <use xlink:href="#md5f58dab74" x="1009.998139" y="51.84" style="stroke: #000000; stroke-width: 0.8"/>
      </g>
     </g>
     <g id="text_27">
      <!-- $\mathdefault{0.6}$ -->
      <g transform="translate(1000.65336 401.85359) scale(0.14994 -0.14994)">
       <use xlink:href="#CMR17-30" transform="scale(0.996264)"/>
       <use xlink:href="#CMMI12-3a" transform="translate(45.690477 0) scale(0.996264)"/>
       <use xlink:href="#CMR17-36" transform="translate(72.787654 0) scale(0.996264)"/>
      </g>
     </g>
    </g>
    <g id="text_28">
     <!-- $\Delta x$ -->
     <g transform="translate(821.979081 421.211479) scale(0.18 -0.18)">
      <defs>
       <path id="CMR17-1" d="M 2598 4435
C 2547 4544 2522 4544 2470 4544
C 2394 4544 2387 4531 2342 4441
L 269 108
C 262 96 237 38 237 32
C 237 6 243 0 358 0
L 4576 0
C 4691 0 4698 6 4698 32
C 4698 38 4672 96 4666 108
L 2598 4435
z
M 2310 4056
L 4083 358
L 531 358
L 2310 4056
z
" transform="scale(0.015625)"/>
      </defs>
      <use xlink:href="#CMR17-1" transform="scale(0.996264)"/>
      <use xlink:href="#CMMI12-78" transform="translate(76.91959 0) scale(0.996264)"/>
     </g>
    </g>
   </g>
   <g id="matplotlib.axis_4">
    <g id="ytick_10">
     <g id="line2d_51">
      <g>
       <use xlink:href="#mfc86905767" x="630.981818" y="369.36" style="stroke: #000000; stroke-width: 0.8"/>
      </g>
     </g>
     <g id="line2d_52">
      <g>
       <use xlink:href="#m21bfda210e" x="1036.8" y="369.36" style="stroke: #000000; stroke-width: 0.8"/>
      </g>
     </g>
     <g id="text_29">
      <!-- $\mathdefault{0.0}$ -->
      <g transform="translate(605.29226 374.546795) scale(0.14994 -0.14994)">
       <use xlink:href="#CMR17-30" transform="scale(0.996264)"/>
       <use xlink:href="#CMMI12-3a" transform="translate(45.690477 0) scale(0.996264)"/>
       <use xlink:href="#CMR17-30" transform="translate(72.787654 0) scale(0.996264)"/>
      </g>
     </g>
    </g>
    <g id="ytick_11">
     <g id="line2d_53">
      <g>
       <use xlink:href="#mfc86905767" x="630.981818" y="296.566408" style="stroke: #000000; stroke-width: 0.8"/>
      </g>
     </g>
     <g id="line2d_54">
      <g>
       <use xlink:href="#m21bfda210e" x="1036.8" y="296.566408" style="stroke: #000000; stroke-width: 0.8"/>
      </g>
     </g>
     <g id="text_30">
      <!-- $\mathdefault{0.2}$ -->
      <g transform="translate(605.29226 301.753203) scale(0.14994 -0.14994)">
       <use xlink:href="#CMR17-30" transform="scale(0.996264)"/>
       <use xlink:href="#CMMI12-3a" transform="translate(45.690477 0) scale(0.996264)"/>
       <use xlink:href="#CMR17-32" transform="translate(72.787654 0) scale(0.996264)"/>
      </g>
     </g>
    </g>
    <g id="ytick_12">
     <g id="line2d_55">
      <g>
       <use xlink:href="#mfc86905767" x="630.981818" y="223.772816" style="stroke: #000000; stroke-width: 0.8"/>
      </g>
     </g>
     <g id="line2d_56">
      <g>
       <use xlink:href="#m21bfda210e" x="1036.8" y="223.772816" style="stroke: #000000; stroke-width: 0.8"/>
      </g>
     </g>
     <g id="text_31">
      <!-- $\mathdefault{0.4}$ -->
      <g transform="translate(605.29226 228.959611) scale(0.14994 -0.14994)">
       <use xlink:href="#CMR17-30" transform="scale(0.996264)"/>
       <use xlink:href="#CMMI12-3a" transform="translate(45.690477 0) scale(0.996264)"/>
       <use xlink:href="#CMR17-34" transform="translate(72.787654 0) scale(0.996264)"/>
      </g>
     </g>
    </g>
    <g id="ytick_13">
     <g id="line2d_57">
      <g>
       <use xlink:href="#mfc86905767" x="630.981818" y="150.979224" style="stroke: #000000; stroke-width: 0.8"/>
      </g>
     </g>
     <g id="line2d_58">
      <g>
       <use xlink:href="#m21bfda210e" x="1036.8" y="150.979224" style="stroke: #000000; stroke-width: 0.8"/>
      </g>
     </g>
     <g id="text_32">
      <!-- $\mathdefault{0.6}$ -->
      <g transform="translate(605.29226 156.166019) scale(0.14994 -0.14994)">
       <use xlink:href="#CMR17-30" transform="scale(0.996264)"/>
       <use xlink:href="#CMMI12-3a" transform="translate(45.690477 0) scale(0.996264)"/>
       <use xlink:href="#CMR17-36" transform="translate(72.787654 0) scale(0.996264)"/>
      </g>
     </g>
    </g>
    <g id="ytick_14">
     <g id="line2d_59">
      <g>
       <use xlink:href="#mfc86905767" x="630.981818" y="78.185632" style="stroke: #000000; stroke-width: 0.8"/>
      </g>
     </g>
     <g id="line2d_60">
      <g>
       <use xlink:href="#m21bfda210e" x="1036.8" y="78.185632" style="stroke: #000000; stroke-width: 0.8"/>
      </g>
     </g>
     <g id="text_33">
      <!-- $\mathdefault{0.8}$ -->
      <g transform="translate(605.29226 83.372427) scale(0.14994 -0.14994)">
       <defs>
        <path id="CMR17-38" d="M 1741 2289
C 2144 2494 2554 2803 2554 3298
C 2554 3884 1990 4224 1472 4224
C 890 4224 378 3800 378 3215
C 378 3054 416 2777 666 2533
C 730 2469 998 2276 1171 2154
C 883 2006 211 1652 211 945
C 211 282 838 -128 1459 -128
C 2144 -128 2720 366 2720 1022
C 2720 1607 2330 1877 2074 2051
L 1741 2289
z
M 902 2855
C 851 2887 595 3086 595 3388
C 595 3781 998 4076 1459 4076
C 1965 4076 2336 3716 2336 3298
C 2336 2700 1670 2359 1638 2359
C 1632 2359 1626 2359 1574 2398
L 902 2855
z
M 2080 1536
C 2176 1466 2483 1253 2483 861
C 2483 385 2010 25 1472 25
C 890 25 448 443 448 951
C 448 1459 838 1884 1280 2083
L 2080 1536
z
" transform="scale(0.015625)"/>
       </defs>
       <use xlink:href="#CMR17-30" transform="scale(0.996264)"/>
       <use xlink:href="#CMMI12-3a" transform="translate(45.690477 0) scale(0.996264)"/>
       <use xlink:href="#CMR17-38" transform="translate(72.787654 0) scale(0.996264)"/>
      </g>
     </g>
    </g>
    <g id="text_34">
     <!-- $|| z(x) - z(x + \Delta x) ||$ -->
     <g transform="translate(596.809072 293.067915) rotate(-90) scale(0.18 -0.18)">
      <defs>
       <path id="CMSY10-6a" d="M 1018 4569
C 1018 4684 1018 4800 890 4800
C 762 4800 762 4684 762 4569
L 762 -1370
C 762 -1485 762 -1600 890 -1600
C 1018 -1600 1018 -1485 1018 -1370
L 1018 4569
z
" transform="scale(0.015625)"/>
       <path id="CMR17-2b" d="M 2413 1472
L 4109 1472
C 4198 1472 4307 1472 4307 1580
C 4307 1696 4205 1696 4109 1696
L 2413 1696
L 2413 3385
C 2413 3475 2413 3584 2304 3584
C 2189 3584 2189 3481 2189 3385
L 2189 1696
L 493 1696
C 403 1696 294 1696 294 1587
C 294 1472 397 1472 493 1472
L 2189 1472
L 2189 -194
C 2189 -282 2189 -391 2298 -391
C 2413 -391 2413 -289 2413 -194
L 2413 1472
z
" transform="scale(0.015625)"/>
      </defs>
      <use xlink:href="#CMSY10-6a" transform="scale(0.996264)"/>
      <use xlink:href="#CMSY10-6a" transform="translate(27.674085 0) scale(0.996264)"/>
      <use xlink:href="#CMMI12-7a" transform="translate(55.348169 0) scale(0.996264)"/>
      <use xlink:href="#CMR17-28" transform="translate(105.103314 0) scale(0.996264)"/>
      <use xlink:href="#CMMI12-78" transform="translate(140.384082 0) scale(0.996264)"/>
      <use xlink:href="#CMR17-29" transform="translate(195.818142 0) scale(0.996264)"/>
      <use xlink:href="#CMSY10-0" transform="translate(253.238116 0) scale(0.996264)"/>
      <use xlink:href="#CMMI12-7a" transform="translate(352.864791 0) scale(0.996264)"/>
      <use xlink:href="#CMR17-28" transform="translate(402.619936 0) scale(0.996264)"/>
      <use xlink:href="#CMMI12-78" transform="translate(437.900704 0) scale(0.996264)"/>
      <use xlink:href="#CMR17-2b" transform="translate(515.47397 0) scale(0.996264)"/>
      <use xlink:href="#CMR17-1" transform="translate(609.327966 0) scale(0.996264)"/>
      <use xlink:href="#CMMI12-78" transform="translate(686.247556 0) scale(0.996264)"/>
      <use xlink:href="#CMR17-29" transform="translate(741.681615 0) scale(0.996264)"/>
      <use xlink:href="#CMSY10-6a" transform="translate(776.962383 0) scale(0.996264)"/>
      <use xlink:href="#CMSY10-6a" transform="translate(804.636468 0) scale(0.996264)"/>
     </g>
    </g>
   </g>
   <g id="line2d_61">
    <path d="M 649.428099 211.916431
L 675.382665 233.603673
L 703.191129 257.130261
L 734.707388 284.092128
L 771.78534 316.117446
L 823.694472 361.277432
L 832.96396 369.36
L 894.142581 316.117446
L 933.07443 282.49865
L 966.444587 253.977839
L 994.25305 230.488436
L 1018.353719 210.378502
L 1018.353719 210.378502
" clip-path="url(#p722f2dfa69)" style="fill: none; stroke: #000000; stroke-width: 2; stroke-linecap: square"/>
   </g>
   <g id="line2d_62">
    <path d="M 649.428099 69.581087
L 660.551485 85.552485
L 671.67487 101.92719
L 682.798256 118.681934
L 695.775539 138.677671
L 708.752822 159.11958
L 721.730105 179.968127
L 736.561286 204.2412
L 751.392466 228.931385
L 768.077545 257.128728
L 788.470418 292.070247
L 814.424984 337.052919
L 832.96396 369.36
L 868.188014 308.084867
L 890.434785 269.781456
L 908.973761 238.285041
L 925.65884 210.377061
L 940.49002 185.993918
L 953.467303 165.036564
L 966.444587 144.474402
L 979.42187 124.347202
L 990.545255 107.471043
L 1001.668641 90.967045
L 1012.792026 74.858661
L 1018.353719 66.96
L 1018.353719 66.96
" clip-path="url(#p722f2dfa69)" style="fill: none; stroke-dasharray: 7.4,3.2; stroke-dashoffset: 0; stroke: #ff0000; stroke-width: 2"/>
   </g>
   <g id="patch_9">
    <path d="M 630.981818 384.48
L 630.981818 51.84
" style="fill: none; stroke: #000000; stroke-width: 0.8; stroke-linejoin: miter; stroke-linecap: square"/>
   </g>
   <g id="patch_10">
    <path d="M 1036.8 384.48
L 1036.8 51.84
" style="fill: none; stroke: #000000; stroke-width: 0.8; stroke-linejoin: miter; stroke-linecap: square"/>
   </g>
   <g id="patch_11">
    <path d="M 630.981818 384.48
L 1036.8 384.48
" style="fill: none; stroke: #000000; stroke-width: 0.8; stroke-linejoin: miter; stroke-linecap: square"/>
   </g>
   <g id="patch_12">
    <path d="M 630.981818 51.84
L 1036.8 51.84
" style="fill: none; stroke: #000000; stroke-width: 0.8; stroke-linejoin: miter; stroke-linecap: square"/>
   </g>
   <g id="legend_2">
    <g id="patch_13">
     <path d="M 643.581818 375.48
L 741.367471 375.48
Q 744.967471 375.48 744.967471 371.88
L 744.967471 319.876793
Q 744.967471 316.276793 741.367471 316.276793
L 643.581818 316.276793
Q 639.981818 316.276793 639.981818 319.876793
L 639.981818 371.88
Q 639.981818 375.48 643.581818 375.48
L 643.581818 375.48
z
" style="fill: none; opacity: 0.8; stroke: #cccccc; stroke-linejoin: miter"/>
    </g>
    <g id="line2d_63">
     <path d="M 647.181818 330.610212
L 665.181818 330.610212
L 683.181818 330.610212
" style="fill: none; stroke: #000000; stroke-width: 2; stroke-linecap: square"/>
    </g>
    <g id="text_35">
     <!-- $\sin (x)$ -->
     <g transform="translate(686.781818 336.910212) scale(0.18 -0.18)">
      <use xlink:href="#CMR17-73" transform="scale(0.996264)"/>
      <use xlink:href="#CMR17-69" transform="translate(35.801338 0) scale(0.996264)"/>
      <use xlink:href="#CMR17-6e" transform="translate(60.672396 0) scale(0.996264)"/>
      <use xlink:href="#CMR17-28" transform="translate(111.567766 0) scale(0.996264)"/>
      <use xlink:href="#CMMI12-78" transform="translate(146.848534 0) scale(0.996264)"/>
      <use xlink:href="#CMR17-29" transform="translate(202.282593 0) scale(0.996264)"/>
     </g>
    </g>
    <g id="line2d_64">
     <path d="M 647.181818 357.511816
L 665.181818 357.511816
L 683.181818 357.511816
" style="fill: none; stroke-dasharray: 7.4,3.2; stroke-dashoffset: 0; stroke: #ff0000; stroke-width: 2"/>
    </g>
    <g id="text_36">
     <!-- $\sin (2x)$ -->
     <g transform="translate(686.781818 363.811816) scale(0.18 -0.18)">
      <use xlink:href="#CMR17-73" transform="scale(0.996264)"/>
      <use xlink:href="#CMR17-69" transform="translate(35.801338 0) scale(0.996264)"/>
      <use xlink:href="#CMR17-6e" transform="translate(60.672396 0) scale(0.996264)"/>
      <use xlink:href="#CMR17-28" transform="translate(111.567766 0) scale(0.996264)"/>
      <use xlink:href="#CMR17-32" transform="translate(146.848534 0) scale(0.996264)"/>
      <use xlink:href="#CMMI12-78" transform="translate(192.539011 0) scale(0.996264)"/>
      <use xlink:href="#CMR17-29" transform="translate(247.97307 0) scale(0.996264)"/>
     </g>
    </g>
   </g>
  </g>
 </g>
 <defs>
  <clipPath id="pd7d9476a33">
   <rect x="144" y="51.84" width="405.818182" height="332.64"/>
  </clipPath>
  <clipPath id="p722f2dfa69">
   <rect x="630.981818" y="51.84" width="405.818182" height="332.64"/>
  </clipPath>
 </defs>
</svg>
